<svg width="575.7612749291823px" height="569.2878085903487px"><rect fill="rgba(18.04%,20.39%,21.18%,1)" width="575.7612749291823px" height="569.2878085903487px"></rect><line x1="291.6265888976707px" x2="291.63531543316907px" y1="287.1260830213696px" y2="286.1261210983054px" stroke-width="1px" stroke="rgba(0%,100%,0%,1)"></line><line x1="291.63531543316907px" x2="288.13584850012165px" y1="286.1261210983054px" y2="286.06503767577493px" stroke-width="1.02px" stroke="rgba(0%,100%,1.2%,0.995)"></line><line x1="288.13584850012165px" x2="287.9787868102744px" y1="286.06503767577493px" y2="292.06298162562825px" stroke-width="1.04px" stroke="rgba(0%,100%,2.4%,0.99)"></line><line x1="287.9787868102744px" x2="296.47360883993673px" y1="292.06298162562825px" y2="292.35962734759954px" stroke-width="1.06px" stroke="rgba(0%,100%,3.6%,0.985)"></line><line x1="296.47360883993673px" x2="296.95342210095544px" y1="292.35962734759954px" y2="281.3700969101991px" stroke-width="1.08px" stroke="rgba(0%,100%,4.8%,0.98)"></line><line x1="296.95342210095544px" x2="283.4719233817687px" y1="281.3700969101991px" y2="280.66356150091934px" stroke-width="1.1px" stroke="rgba(0%,100%,6%,0.975)"></line><line x1="283.4719233817687px" x2="282.495146749211px" y1="280.66356150091934px" y2="296.63371827566925px" stroke-width="1.12px" stroke="rgba(0%,100%,7.2%,0.97)"></line><line x1="282.495146749211px" x2="300.9500816790178px" y1="296.63371827566925px" y2="297.9242130399355px" stroke-width="1.1400000000000001px" stroke="rgba(0%,100%,8.4%,0.965)"></line><line x1="300.9500816790178px" x2="302.59772268930243px" y1="297.9242130399355px" y2="276.98894903153985px" stroke-width="1.1600000000000001px" stroke="rgba(0%,100%,9.6%,0.96)"></line><line x1="302.59772268930243px" x2="279.1871472841464px" y1="276.98894903153985px" y2="274.94078907696996px" stroke-width="1.1800000000000002px" stroke="rgba(0%,100%,10.8%,0.955)"></line><line x1="279.1871472841464px" x2="276.69515771862064px" y1="274.94078907696996px" y2="300.8210902345166px" stroke-width="1.2000000000000002px" stroke="rgba(0%,100%,12%,0.95)"></line><line x1="276.69515771862064px" x2="305.03903173661644px" y1="300.8210902345166px" y2="303.8001514376447px" stroke-width="1.2200000000000002px" stroke="rgba(0%,100%,13.2%,0.945)"></line><line x1="305.03903173661644px" x2="308.5483313634215px" y1="303.8001514376447px" y2="272.9994239116704px" stroke-width="1.2400000000000002px" stroke="rgba(0%,100%,14.4%,0.94)"></line><line x1="308.5483313634215px" x2="275.2980352834372px" y1="272.9994239116704px" y2="268.9168009075981px" stroke-width="1.2600000000000002px" stroke="rgba(0%,100%,15.6%,0.935)"></line><line x1="275.2980352834372px" x2="270.5990923635154px" y1="268.9168009075981px" y2="304.60881591705527px" stroke-width="1.2800000000000002px" stroke="rgba(0%,100%,16.8%,0.93)"></line><line x1="270.5990923635154px" x2="308.7244130100659px" y1="304.60881591705527px" y2="309.9669803040176px" stroke-width="1.3000000000000003px" stroke="rgba(0%,100%,18%,0.925)"></line><line x1="308.7244130100659px" x2="314.7845988663798px" y1="309.9669803040176px" y2="269.417329906179px" stroke-width="1.3200000000000003px" stroke="rgba(0%,100%,19.2%,0.92)"></line><line x1="314.7845988663798px" x2="271.8201560504912px" y1="269.417329906179px" y2="262.6124306769292px" stroke-width="1.3400000000000003px" stroke="rgba(0%,100%,20.4%,0.915)"></line><line x1="271.8201560504912px" x2="264.2279661809003px" y1="262.6124306769292px" y2="307.9815683476419px" stroke-width="1.3600000000000003px" stroke="rgba(0%,100%,21.6%,0.91)"></line><line x1="264.2279661809003px" x2="311.9911422019925px" y1="307.9815683476419px" y2="316.40350496448775px" stroke-width="1.3800000000000003px" stroke="rgba(0%,100%,22.8%,0.905)"></line><line x1="311.9911422019925px" x2="321.2851540020918px" y1="316.40350496448775px" y2="266.25750467872604px" stroke-width="1.4000000000000004px" stroke="rgba(0%,100%,24%,0.9)"></line><line x1="321.2851540020918px" x2="268.7680996876418px" y1="266.25750467872604px" y2="256.049223426081px" stroke-width="1.4200000000000004px" stroke="rgba(0%,100%,25.2%,0.895)"></line><line x1="268.7680996876418px" x2="257.60349536027894px" y1="256.049223426081px" y2="310.92500688484756px" stroke-width="1.4400000000000004px" stroke="rgba(0%,100%,26.4%,0.89)"></line><line x1="257.60349536027894px" x2="314.82513000320665px" y1="310.92500688484756px" y2="323.0878407976862px" stroke-width="1.4600000000000004px" stroke="rgba(0%,100%,27.6%,0.885)"></line><line x1="314.82513000320665px" x2="328.0279464534306px" y1="323.0878407976862px" y2="263.5337843633702px" stroke-width="1.4800000000000004px" stroke="rgba(0%,100%,28.8%,0.88)"></line><line x1="328.0279464534306px" x2="266.1554473395681px" y1="263.5337843633702px" y2="249.24939241253512px" stroke-width="1.5000000000000004px" stroke="rgba(0%,100%,30%,0.875)"></line><line x1="266.1554473395681px" x2="250.74805332507873px" y1="249.24939241253512px" y2="313.4258071587819px" stroke-width="1.5200000000000005px" stroke="rgba(0%,100%,31.2%,0.87)"></line><line x1="250.74805332507873px" x2="317.2133105749846px" y1="313.4258071587819px" y2="329.99745700735866px" stroke-width="1.5400000000000005px" stroke="rgba(0%,100%,32.4%,0.865)"></line><line x1="317.2133105749846px" x2="334.99029086284946px" y1="329.99745700735866px" y2="261.2589745405129px" stroke-width="1.5600000000000005px" stroke="rgba(0%,100%,33.6%,0.86)"></line><line x1="334.99029086284946px" x2="263.9947426306028px" y1="261.2589745405129px" y2="242.23577472547814px" stroke-width="1.5800000000000005px" stroke="rgba(0%,100%,34.8%,0.855)"></line><line x1="263.9947426306028px" x2="243.68462604865584px" y1="242.23577472547814px" y2="315.4716891693337px" stroke-width="1.6000000000000005px" stroke="rgba(0%,100%,36%,0.85)"></line><line x1="243.68462604865584px" x2="319.143669179814px" y1="315.4716891693337px" y2="337.10922160096743px" stroke-width="1.6200000000000006px" stroke="rgba(0%,100%,37.2%,0.845)"></line><line x1="319.143669179814px" x2="342.1489121008311px" y1="337.10922160096743px" y2="259.4448230766436px" stroke-width="1.6400000000000006px" stroke="rgba(0%,100%,38.4%,0.84)"></line><line x1="342.1489121008311px" x2="262.2974649779174px" y1="259.4448230766436px" y2="235.03178573229587px" stroke-width="1.6600000000000006px" stroke="rgba(0%,100%,39.6%,0.835)"></line><line x1="262.2974649779174px" x2="236.4367662205507px" y1="235.03178573229587px" y2="317.0514434966436px" stroke-width="1.6800000000000006px" stroke="rgba(0%,100%,40.8%,0.83)"></line><line x1="236.4367662205507px" x2="320.60526791267205px" y1="317.0514434966436px" y2="344.3994474988256px" stroke-width="1.7000000000000006px" stroke="rgba(0%,100%,42%,0.825)"></line><line x1="320.60526791267205px" x2="349.47999164553454px" y1="344.3994474988256px" y2="258.10199487506117px" stroke-width="1.7200000000000006px" stroke="rgba(0%,100%,43.2%,0.82)"></line><line x1="349.47999164553454px" x2="261.0740048269981px" y1="258.10199487506117px" y2="227.66137243331798px" stroke-width="1.7400000000000007px" stroke="rgba(0%,100%,44.4%,0.815)"></line><line x1="261.0740048269981px" x2="229.0285463405571px" y1="227.66137243331798px" y2="318.1549555781675px" stroke-width="1.7600000000000007px" stroke="rgba(0%,100%,45.6%,0.81)"></line><line x1="229.0285463405571px" x2="321.5882694879695px" y1="318.1549555781675px" y2="351.8439396957448px" stroke-width="1.7800000000000007px" stroke="rgba(0%,100%,46.8%,0.805)"></line><line x1="321.5882694879695px" x2="356.95921499517453px" y1="351.8439396957448px" y2="257.24004858165614px" stroke-width="1.8000000000000007px" stroke="rgba(0%,100%,48%,0.8)"></line><line x1="356.95921499517453px" x2="260.3336408527139px" y1="257.24004858165614px" y2="220.14896580371817px" stroke-width="1.8200000000000007px" stroke="rgba(0%,100%,49.2%,0.795)"></line><line x1="260.3336408527139px" x2="221.48451081993838px" y1="220.14896580371817px" y2="318.7732280098127px" stroke-width="1.8400000000000007px" stroke="rgba(0%,100%,50.4%,0.79)"></line><line x1="221.48451081993838px" x2="322.0839590404345px" y1="318.7732280098127px" y2="359.4180433954399px" stroke-width="1.8600000000000008px" stroke="rgba(0%,100%,51.6%,0.785)"></line><line x1="322.0839590404345px" x2="364.5618200329609px" y1="359.4180433954399px" y2="256.8674152866877px" stroke-width="1.8800000000000008px" stroke="rgba(0%,100%,52.8%,0.78)"></line><line x1="364.5618200329609px" x2="260.0845191661098px" y1="256.8674152866877px" y2="212.51943220315297px" stroke-width="1.9000000000000008px" stroke="rgba(0%,100%,54%,0.775)"></line><line x1="260.0845191661098px" x2="213.8296271707784px" y1="212.51943220315297px" y2="318.8984008318261px" stroke-width="1.9200000000000008px" stroke="rgba(0%,100%,55.2%,0.77)"></line><line x1="213.8296271707784px" x2="322.084763901425px" y1="318.8984008318261px" y2="367.0966930363121px" stroke-width="1.9400000000000008px" stroke="rgba(0%,100%,56.4%,0.765)"></line><line x1="322.084763901425px" x2="372.2626462628343px" y1="367.0966930363121px" y2="256.99137926025236px" stroke-width="1.9600000000000009px" stroke="rgba(0%,100%,57.6%,0.76)"></line><line x1="372.2626462628343px" x2="260.3336345638105px" y1="256.99137926025236px" y2="204.79802393527075px" stroke-width="1.9800000000000009px" stroke="rgba(0%,100%,58.8%,0.755)"></line><line x1="260.3336345638105px" x2="206.08923636595927px" y1="204.79802393527075px" y2="318.5237697633503px" stroke-width="2.000000000000001px" stroke="rgba(0%,100%,60%,0.75)"></line><line x1="206.08923636595927px" x2="321.58427131539884px" y1="318.5237697633503px" y2="374.8544621257537px" stroke-width="2.020000000000001px" stroke="rgba(0%,100%,61.2%,0.745)"></line><line x1="321.58427131539884px" x2="380.0361848327916px" y1="374.8544621257537px" y2="257.61806075589226px" stroke-width="2.040000000000001px" stroke="rgba(0%,100%,62.4%,0.74)"></line><line x1="380.0361848327916px" x2="261.08681385364895px" y1="257.61806075589226px" y2="197.01032904065403px" stroke-width="2.060000000000001px" stroke="rgba(0%,100%,63.6%,0.735)"></line><line x1="261.08681385364895px" x2="198.28900245367467px" y1="197.01032904065403px" y2="317.6438023528872px" stroke-width="2.080000000000001px" stroke="rgba(0%,100%,64.8%,0.73)"></line><line x1="198.28900245367467px" x2="320.5772440646304px" y1="317.6438023528872px" y2="382.6656137987436px" stroke-width="2.100000000000001px" stroke="rgba(0%,100%,66%,0.725)"></line><line x1="320.5772440646304px" x2="387.8566292612468px" y1="382.6656137987436px" y2="258.75240091341277px" stroke-width="2.120000000000001px" stroke="rgba(0%,100%,67.2%,0.72)"></line><line x1="387.8566292612468px" x2="262.34870128675044px" y1="258.75240091341277px" y2="189.1822204080509px" stroke-width="2.140000000000001px" stroke="rgba(0%,100%,68.4%,0.715)"></line><line x1="262.34870128675044px" x2="190.4548615116307px" y1="189.1822204080509px" y2="316.2541520152686px" stroke-width="2.160000000000001px" stroke="rgba(0%,100%,69.6%,0.71)"></line><line x1="190.4548615116307px" x2="319.0596339736114px" y1="316.2541520152686px" y2="390.5041520152831px" stroke-width="2.180000000000001px" stroke="rgba(0%,100%,70.8%,0.705)"></line><line x1="319.0596339736114px" x2="395.69792678069336px" y1="390.5041520152831px" y2="260.39814878862194px" stroke-width="2.200000000000001px" stroke="rgba(0%,100%,72%,0.7)"></line><line x1="395.69792678069336px" x2="264.12274612292913px" y1="260.39814878862194px" y2="181.33980428991197px" stroke-width="2.220000000000001px" stroke="rgba(0%,100%,73.2%,0.695)"></line><line x1="264.12274612292913px" x2="182.61297002722338px" y1="181.33980428991197px" y2="314.3516699291395px" stroke-width="2.240000000000001px" stroke="rgba(0%,100%,74.4%,0.69)"></line><line x1="182.61297002722338px" x2="317.0285932680051px" y1="314.3516699291395px" y2="398.3438733101213px" stroke-width="2.260000000000001px" stroke="rgba(0%,100%,75.6%,0.685)"></line><line x1="317.0285932680051px" x2="403.5338302118637px" y1="398.3438733101213px" y2="262.55785053425933px" stroke-width="2.280000000000001px" stroke="rgba(0%,100%,76.8%,0.68)"></line><line x1="403.5338302118637px" x2="266.4111923528004px" y1="262.55785053425933px" y2="173.50936830928146px" stroke-width="2.300000000000001px" stroke="rgba(0%,100%,78%,0.675)"></line><line x1="266.4111923528004px" x2="174.78965279097667px" y1="173.50936830928146px" y2="311.93441477241674px" stroke-width="2.320000000000001px" stroke="rgba(0%,100%,79.2%,0.67)"></line><line x1="174.78965279097667px" x2="314.4824837664856px" y1="311.93441477241674px" y2="406.1584190072608px" stroke-width="2.340000000000001px" stroke="rgba(0%,100%,80.4%,0.665)"></line><line x1="314.4824837664856px" x2="411.33795028065634px" y1="406.1584190072608px" y2="265.23284075291286px" stroke-width="2.360000000000001px" stroke="rgba(0%,100%,81.6%,0.66)"></line><line x1="411.33795028065634px" x2="269.21507059653413px" y1="265.23284075291286px" y2="165.71732904598088px" stroke-width="2.3800000000000012px" stroke="rgba(0%,100%,82.8%,0.655)"></line><line x1="269.21507059653413px" x2="167.01135039138208px" y1="165.71732904598088px" y2="309.00166027667404px" stroke-width="2.4000000000000012px" stroke="rgba(0%,100%,84%,0.65)"></line><line x1="167.01135039138208px" x2="311.42088388728996px" y1="309.00166027667404px" y2="413.92132781090834px" stroke-width="2.4200000000000013px" stroke="rgba(0%,100%,85.2%,0.645)"></line><line x1="311.42088388728996px" x2="419.0838082893117px" y1="413.92132781090834px" y2="268.42323603921346px" stroke-width="2.4400000000000013px" stroke="rgba(0%,100%,86.4%,0.64)"></line><line x1="419.0838082893117px" x2="272.53419219565626px" y1="268.42323603921346px" y2="157.9901792907824px" stroke-width="2.4600000000000013px" stroke="rgba(0%,100%,87.6%,0.635)"></line><line x1="272.53419219565626px" x2="159.30456640000284px" y1="157.9901792907824px" y2="305.5539005849281px" stroke-width="2.4800000000000013px" stroke="rgba(0%,100%,88.8%,0.63)"></line><line x1="159.30456640000284px" x2="307.84459345484447px" y1="305.5539005849281px" y2="421.60608868384725px" stroke-width="2.5000000000000013px" stroke="rgba(0%,100%,90%,0.625)"></line><line x1="307.84459345484447px" x2="426.74488905266355px" y1="421.60608868384725px" y2="272.12793072506304px" stroke-width="2.5200000000000014px" stroke="rgba(0%,100%,91.2%,0.62)"></line><line x1="426.74488905266355px" x2="276.367145510768px" y1="272.12793072506304px" y2="150.35443505688454px" stroke-width="2.5400000000000014px" stroke="rgba(0%,100%,92.4%,0.615)"></line><line x1="276.367145510768px" x2="151.69581433629014px" y1="150.35443505688454px" y2="301.59285340084784px" stroke-width="2.5600000000000014px" stroke="rgba(0%,100%,93.6%,0.61)"></line><line x1="151.69581433629014px" x2="303.75563629537595px" y1="301.59285340084784px" y2="429.18619392366327px" stroke-width="2.5800000000000014px" stroke="rgba(0%,100%,94.8%,0.605)"></line><line x1="303.75563629537595px" x2="434.29469400978144px" y1="429.18619392366327px" y2="276.34459483808996px" stroke-width="2.6000000000000014px" stroke="rgba(0%,100%,96%,0.6)"></line><line x1="434.29469400978144px" x2="280.71129443448194px" y1="276.34459483808996px" y2="142.836582438482px" stroke-width="2.6200000000000014px" stroke="rgba(0%,100%,97.2%,0.595)"></line><line x1="280.71129443448194px" x2="144.2115645020012px" y1="142.836582438482px" y2="297.12146092098214px" stroke-width="2.6400000000000015px" stroke="rgba(0%,100%,98.4%,0.59)"></line><line x1="144.2115645020012px" x2="299.1572606140039px" y1="297.12146092098214px" y2="436.63519234684185px" stroke-width="2.6600000000000015px" stroke="rgba(0%,100%,99.6%,0.585)"></line><line x1="299.1572606140039px" x2="441.70679442094496px" y1="436.63519234684185px" y2="281.06967427993936px" stroke-width="2.6800000000000015px" stroke="rgba(0%,99.2%,100%,0.58)"></line><line x1="441.70679442094496px" x2="285.5627791252854px" y1="281.06967427993936px" y2="135.4630244065602px" stroke-width="2.7000000000000015px" stroke="rgba(0%,98%,100%,0.575)"></line><line x1="285.5627791252854px" x2="136.87819077539987px" y1="135.4630244065602px" y2="292.1438885451815px" stroke-width="2.7200000000000015px" stroke="rgba(0%,96.8%,100%,0.57)"></line><line x1="136.87819077539987px" x2="294.0539371493628px" y1="292.1438885451815px" y2="443.92674249050594px" stroke-width="2.7400000000000015px" stroke="rgba(0%,95.6%,100%,0.565)"></line><line x1="294.0539371493628px" x2="448.9548845596623px" y1="443.92674249050594px" y2="286.2983932274637px" stroke-width="2.7600000000000016px" stroke="rgba(0%,94.4%,100%,0.56)"></line><line x1="448.9548845596623px" x2="290.91651896450026px" y1="286.2983932274637px" y2="128.260027632239px" stroke-width="2.7800000000000016px" stroke="rgba(0%,93.2%,100%,0.555)"></line><line x1="290.91651896450026px" x2="129.72191745562498px" y1="128.260027632239px" y2="286.66552136397456px" stroke-width="2.8000000000000016px" stroke="rgba(0%,92%,100%,0.55)"></line><line x1="129.72191745562498px" x2="288.4513551054757px" y1="286.66552136397456px" y2="451.0346657413854px" stroke-width="2.8200000000000016px" stroke="rgba(0%,90.8%,100%,0.545)"></line><line x1="288.4513551054757px" x2="456.0128348093421px" y1="451.0346657413854px" y2="292.02475875615767px" stroke-width="2.8400000000000016px" stroke="rgba(0%,89.6%,100%,0.54)"></line><line x1="456.0128348093421px" x2="296.76621773477734px" y1="292.02475875615767px" y2="121.2536694280546px" stroke-width="2.8600000000000017px" stroke="rgba(0%,88.4%,100%,0.535)"></line><line x1="296.76621773477734px" x2="122.76876624756255px" y1="121.2536694280546px" y2="280.69295842532256px" stroke-width="2.8800000000000017px" stroke="rgba(0%,87.2%,100%,0.53)"></line><line x1="122.76876624756255px" x2="282.35641586412316px" y1="280.69295842532256px" y2="457.9329993017054px" stroke-width="2.9000000000000017px" stroke="rgba(0%,86%,100%,0.525)"></line><line x1="282.35641586412316px" x2="462.85474457429586px" y1="457.9329993017054px" y2="298.24156768173884px" stroke-width="2.9200000000000017px" stroke="rgba(0%,84.8%,100%,0.52)"></line><line x1="462.85474457429586px" x2="303.10437101513264px" y1="298.24156768173884px" y2="114.4697848974719px" stroke-width="2.9400000000000017px" stroke="rgba(0%,83.6%,100%,0.515)"></line><line x1="303.10437101513264px" x2="116.04450347750426px" y1="114.4697848974719px" y2="274.23400478667276px" stroke-width="2.9600000000000017px" stroke="rgba(0%,82.4%,100%,0.51)"></line><line x1="116.04450347750426px" x2="275.777224484586px" y1="274.23400478667276px" y2="464.5960489017583px" stroke-width="2.9800000000000018px" stroke="rgba(0%,81.2%,100%,0.505)"></line><line x1="275.777224484586px" x2="469.45499491492205px" y1="464.5960489017583px" y2="304.9404156120618px" stroke-width="3.0000000000000018px" stroke="rgba(0%,80%,100%,0.5)"></line><line x1="469.45499491492205px" x2="309.92227578380937px" y1="304.9404156120618px" y2="107.93391438270262px" stroke-width="3.020000000000002px" stroke="rgba(0%,78.8%,100%,0.495)"></line><line x1="309.92227578380937px" x2="109.57458762957552px" y1="107.93391438270262px" y2="267.29766136191324px" stroke-width="3.040000000000002px" stroke="rgba(0%,77.6%,100%,0.49)"></line><line x1="109.57458762957552px" x2="268.72307900123946px" y1="267.29766136191324px" y2="470.99844116926556px" stroke-width="3.060000000000002px" stroke="rgba(0%,76.4%,100%,0.485)"></line><line x1="268.72307900123946px" x2="475.7883008172653px" y1="470.99844116926556px" y2="312.1117081980069px" stroke-width="3.080000000000002px" stroke="rgba(0%,75.2%,100%,0.48)"></line><line x1="475.7883008172653px" x2="317.2100422167167px" y1="312.1117081980069px" y2="101.67125130053307px" stroke-width="3.100000000000002px" stroke="rgba(0%,74%,100%,0.475)"></line><line x1="317.2100422167167px" x2="103.38411729252593px" y1="101.67125130053307px" y2="259.89411257637505px" stroke-width="3.120000000000002px" stroke="rgba(0%,72.8%,100%,0.47)"></line><line x1="103.38411729252593px" x2="261.2044575330416px" y1="259.89411257637505px" y2="477.11517556605816px" stroke-width="3.140000000000002px" stroke="rgba(0%,71.6%,100%,0.465)"></line><line x1="261.2044575330416px" x2="481.82976300761266px" y1="477.11517556605816px" y2="319.74467456840546px" stroke-width="3.160000000000002px" stroke="rgba(0%,70.4%,100%,0.46)"></line><line x1="481.82976300761266px" x2="324.95660766561195px" y1="319.74467456840546px" y2="95.70659045535888px" stroke-width="3.180000000000002px" stroke="rgba(0%,69.2%,100%,0.455)"></line><line x1="324.95660766561195px" x2="97.49777960592954px" y1="95.70659045535888px" y2="252.03471184660387px" stroke-width="3.200000000000002px" stroke="rgba(0%,68%,100%,0.45)"></line><line x1="97.49777960592954px" x2="253.23300322252533px" y1="252.03471184660387px" y2="482.92167580318784px" stroke-width="3.220000000000002px" stroke="rgba(0%,66.8%,100%,0.445)"></line><line x1="253.23300322252533px" x2="487.5549192234033px" y1="482.92167580318784px" y2="327.82738293050505px" stroke-width="3.240000000000002px" stroke="rgba(0%,65.6%,100%,0.44)"></line><line x1="487.5549192234033px" x2="333.1497527966469px" y1="327.82738293050505px" y2="90.06427691797484px" stroke-width="3.260000000000002px" stroke="rgba(0%,64.4%,100%,0.435)"></line><line x1="333.1497527966469px" x2="91.93979929416031px" y1="90.06427691797484px" y2="243.7319649051644px" stroke-width="3.280000000000002px" stroke="rgba(0%,63.2%,100%,0.43)"></line><line x1="91.93979929416031px" x2="244.8215070254397px" y1="243.7319649051644px" y2="488.3938406462935px" stroke-width="3.300000000000002px" stroke="rgba(0%,62%,100%,0.425)"></line><line x1="244.8215070254397px" x2="492.9397948524795px" y1="488.3938406462935px" y2="336.34675831395066px" stroke-width="3.320000000000002px" stroke="rgba(0%,60.8%,100%,0.42)"></line><line x1="492.9397948524795px" x2="341.7761198663751px" y1="336.34675831395066px" y2="84.76815555788286px" stroke-width="3.340000000000002px" stroke="rgba(0%,59.6%,100%,0.415)"></line><line x1="341.7761198663751px" x2="86.73388837568675px" y1="84.76815555788286px" y2="234.99951099425687px" stroke-width="3.360000000000002px" stroke="rgba(0%,58.4%,100%,0.41)"></line><line x1="86.73388837568675px" x2="235.98388837569433px" y1="234.99951099425687px" y2="493.5080940239074px" stroke-width="3.380000000000002px" stroke="rgba(0%,57.2%,100%,0.405)"></line><line x1="235.98388837569433px" x2="497.96095285359866px" y1="493.5080940239074px" y2="345.28860243275415px" stroke-width="3.400000000000002px" stroke="rgba(0%,56%,100%,0.4)"></line><line x1="497.96095285359866px" x2="350.82123310882355px" y1="345.28860243275415px" y2="79.84152131595405px" stroke-width="3.420000000000002px" stroke="rgba(0%,54.8%,100%,0.395)"></line><line x1="350.82123310882355px" x2="81.90319663426973px" y1="79.84152131595405px" y2="225.85210195540824px" stroke-width="3.440000000000002px" stroke="rgba(0%,53.6%,100%,0.39)"></line><line x1="81.90319663426973px" x2="226.7351737537333px" y1="225.85210195540824px" y2="498.2414343523785px" stroke-width="3.460000000000002px" stroke="rgba(0%,52.4%,100%,0.385)"></line><line x1="226.7351737537333px" x2="502.5955428721506px" y1="498.2414343523785px" y2="354.6376156362644px" stroke-width="3.480000000000002px" stroke="rgba(0%,51.2%,100%,0.38)"></line><line x1="502.5955428721506px" x2="360.2695212037817px" y1="354.6376156362644px" y2="75.30707030322176px" stroke-width="3.500000000000002px" stroke="rgba(0%,50%,100%,0.375)"></line><line x1="360.2695212037817px" x2="77.47026293755346px" y1="75.30707030322176px" y2="216.30557924594467px" stroke-width="3.5200000000000022px" stroke="rgba(0%,48.8%,100%,0.37)"></line><line x1="77.47026293755346px" x2="217.0914731899004px" y1="216.30557924594467px" y2="502.5714829922168px" stroke-width="3.5400000000000023px" stroke="rgba(0%,47.6%,100%,0.365)"></line><line x1="217.0914731899004px" x2="506.82134946619215px" y1="502.5714829922168px" y2="364.3774209167257px" stroke-width="3.5600000000000023px" stroke="rgba(0%,46.4%,100%,0.36)"></line><line x1="506.82134946619215px" x2="370.104341793045px" y1="364.3774209167257px" y2="71.18685181038387px" stroke-width="3.5800000000000023px" stroke="rgba(0%,45.2%,100%,0.355)"></line><line x1="370.104341793045px" x2="73.4569674873072px" y1="71.18685181038387px" y2="206.37684891635126px" stroke-width="3.6000000000000023px" stroke="rgba(0%,44%,100%,0.35)"></line><line x1="73.4569674873072px" x2="207.0699547377437px" y1="206.37684891635126px" y2="506.47653175192954px" stroke-width="3.6200000000000023px" stroke="rgba(0%,42.8%,100%,0.345)"></line><line x1="207.0699547377437px" x2="510.6168393592028px" y1="506.47653175192954px" y2="374.4905899376342px" stroke-width="3.6400000000000023px" stroke="rgba(0%,41.6%,100%,0.34)"></line><line x1="510.6168393592028px" x2="380.3080080079884px" y1="374.4905899376342px" y2="67.50222131126304px" stroke-width="3.6600000000000024px" stroke="rgba(0%,40.4%,100%,0.335)"></line><line x1="380.3080080079884px" x2="69.88448508421445px" y1="67.50222131126304px" y2="196.08385458597766px" stroke-width="3.6800000000000024px" stroke="rgba(0%,39.2%,100%,0.33)"></line><line x1="69.88448508421445px" x2="196.688816955548px" y1="196.08385458597766px" y2="509.9355893568161px" stroke-width="3.7000000000000024px" stroke="rgba(0%,38%,100%,0.325)"></line><line x1="196.688816955548px" x2="513.9612076373986px" y1="509.9355893568161px" y2="384.95867104378044px" stroke-width="3.7200000000000024px" stroke="rgba(0%,36.8%,100%,0.32)"></line><line x1="513.9612076373986px" x2="390.86181696853475px" y1="384.95867104378044px" y2="64.27379454201207px" stroke-width="3.7400000000000024px" stroke="rgba(0%,35.6%,100%,0.315)"></line><line x1="390.86181696853475px" x2="66.77323948861019px" y1="64.27379454201207px" y2="185.44554845784404px" stroke-width="3.7600000000000025px" stroke="rgba(0%,34.4%,100%,0.31)"></line><line x1="66.77323948861019px" x2="185.96725943766506px" y1="185.44554845784404px" y2="512.9284268017116px" stroke-width="3.7800000000000025px" stroke="rgba(0%,33.2%,100%,0.305)"></line><line x1="185.96725943766506px" x2="516.8344228109976px" y1="512.9284268017116px" y2="395.7622192105955px" stroke-width="3.8000000000000025px" stroke="rgba(0%,32%,100%,0.3)"></line><line x1="516.8344228109976px" x2="401.7460802103271px" y1="395.7622192105955px" y2="61.5214027362596px" stroke-width="3.8200000000000025px" stroke="rgba(0%,30.8%,100%,0.295)"></line><line x1="401.7460802103271px" x2="64.14285895694314px" y1="61.5214027362596px" y2="174.48186041654122px" stroke-width="3.8400000000000025px" stroke="rgba(0%,29.6%,100%,0.29)"></line><line x1="64.14285895694314px" x2="174.9254514404339px" y1="174.48186041654122px" y2="515.4356215083303px" stroke-width="3.8600000000000025px" stroke="rgba(0%,28.4%,100%,0.285)"></line><line x1="174.9254514404339px" x2="519.2172706605201px" y1="515.4356215083303px" y2="406.8808278872124px" stroke-width="3.8800000000000026px" stroke="rgba(0%,27.2%,100%,0.28)"></line><line x1="519.2172706605201px" x2="412.9401559937265px" y1="406.8808278872124px" y2="59.264049094673084px" stroke-width="3.9000000000000026px" stroke="rgba(0%,26%,100%,0.275)"></line><line x1="412.9401559937265px" x2="62.012133031992164px" y1="59.264049094673084px" y2="163.21366525639098px" stroke-width="3.9200000000000026px" stroke="rgba(0%,24.8%,100%,0.27)"></line><line x1="62.012133031992164px" x2="163.58449865064202px" y1="163.21366525639098px" y2="517.4386002096369px" stroke-width="3.9400000000000026px" stroke="rgba(0%,23.6%,100%,0.265)"></line><line x1="163.58449865064202px" x2="521.0913967910165px" y1="517.4386002096369px" y2="418.2931626845144px" stroke-width="3.9600000000000026px" stroke="rgba(0%,22.4%,100%,0.26)"></line><line x1="521.0913967910165px" x2="424.4224834451322px" y1="418.2931626845144px" y2="57.519866565572215px" stroke-width="3.9800000000000026px" stroke="rgba(0%,21.2%,100%,0.255)"></line><line x1="424.4224834451322px" x2="60.39897066298852px" y1="57.519866565572215px" y2="151.6627480901385px" stroke-width="4.000000000000003px" stroke="rgba(0%,20%,100%,0.25)"></line><line x1="60.39897066298852px" x2="151.96640814756273px" y1="151.6627480901385px" y2="518.9196804855783px" stroke-width="4.020000000000002px" stroke="rgba(0%,18.8%,100%,0.245)"></line><line x1="151.96640814756273px" x2="522.4393478190526px" y1="518.9196804855783px" y2="429.9769968563746px" stroke-width="4.040000000000002px" stroke="rgba(0%,17.6%,100%,0.24)"></line><line x1="522.4393478190526px" x2="436.17061847807304px" y1="429.9769968563746px" y2="56.306077011261664px" stroke-width="4.060000000000001px" stroke="rgba(0%,16.4%,100%,0.235)"></line><line x1="436.17061847807304px" x2="59.32035972980336px" y1="56.306077011261664px" y2="139.85176799148053px" stroke-width="4.080000000000001px" stroke="rgba(0%,15.2%,100%,0.23)"></line><line x1="59.32035972980336px" x2="140.09405161261782px" y1="139.85176799148053px" y2="519.8621108765396px" stroke-width="4.1000000000000005px" stroke="rgba(0%,14%,100%,0.225)"></line><line x1="140.09405161261782px" x2="523.2446111193381px" y1="519.8621108765396px" y2="441.9092485192967px" stroke-width="4.12px" stroke="rgba(0%,12.8%,100%,0.22)"></line><line x1="523.2446111193381px" x2="448.1612714385449px" y1="441.9092485192967px" y2="55.63895183266476px" stroke-width="4.14px" stroke="rgba(0%,11.6%,100%,0.215)"></line><line x1="448.1612714385449px" x2="58.79232804324235px" y1="55.63895183266476px" y2="127.8042199276818px" stroke-width="4.159999999999999px" stroke="rgba(0%,10.4%,100%,0.21)"></line><line x1="58.79232804324235px" x2="127.99112684364474px" y1="127.8042199276818px" y2="520.2501095030236px" stroke-width="4.179999999999999px" stroke="rgba(0%,9.2%,100%,0.205)"></line><line x1="127.99112684364474px" x2="523.4916530600519px" y1="520.2501095030236px" y2="454.06601955275727px" stroke-width="4.199999999999998px" stroke="rgba(0%,8%,100%,0.2)"></line><line x1="523.4916530600519px" x2="460.37034641618015px" y1="454.06601955275727px" y2="55.53377412264115px" stroke-width="4.219999999999998px" stroke="rgba(0%,6.8%,100%,0.195)"></line><line x1="460.37034641618015px" x2="58.82990589126322px" y1="55.53377412264115px" y2="115.54439504140586px" stroke-width="4.2399999999999975px" stroke="rgba(0%,5.6%,100%,0.19)"></line><line x1="58.82990589126322px" x2="115.68211763358539px" y1="115.54439504140586px" y2="520.0689011223183px" stroke-width="4.259999999999997px" stroke="rgba(0%,4.4%,100%,0.185)"></line><line x1="115.68211763358539px" x2="523.1659556582031px" y1="520.0689011223183px" y2="466.42263611973755px" stroke-width="4.279999999999997px" stroke="rgba(0%,3.2%,100%,0.18)"></line><line x1="523.1659556582031px" x2="472.772982160031px" y1="466.42263611973755px" y2="56.004802416068515px" stroke-width="4.299999999999996px" stroke="rgba(0%,2%,100%,0.175)"></line><line x1="472.772982160031px" x2="59.44709019858743px" y1="56.004802416068515px" y2="103.09733934366551px" stroke-width="4.319999999999996px" stroke="rgba(0%,0.8%,100%,0.17)"></line><line x1="59.44709019858743px" x2="103.1922520762524px" y1="103.09733934366551px" y2="519.304752555272px" stroke-width="4.339999999999995px" stroke="rgba(0.4%,0%,100%,0.165)"></line><line x1="103.1922520762524px" x2="522.2540515888196px" y1="519.304752555272px" y2="478.95369074410144px" stroke-width="4.359999999999995px" stroke="rgba(1.6%,0%,100%,0.16)"></line><line x1="522.2540515888196px" x2="485.34359453502594px" y1="478.95369074410144px" y2="57.06523610226128px" stroke-width="4.379999999999995px" stroke="rgba(2.8%,0%,100%,0.155)"></line><line x1="485.34359453502594px" x2="60.65681036472637px" y1="57.06523610226128px" y2="90.488810882488px" stroke-width="4.399999999999994px" stroke="rgba(4%,0%,100%,0.15)"></line><line x1="60.65681036472637px" x2="90.54745936425314px" y1="90.488810882488px" y2="517.9450064188109px" stroke-width="4.419999999999994px" stroke="rgba(5.2%,0%,100%,0.145)"></line><line x1="90.54745936425314px" x2="520.7435574840672px" y1="517.9450064188109px" y2="491.6330858791141px" stroke-width="4.439999999999993px" stroke="rgba(6.4%,0%,100%,0.14)"></line><line x1="520.7435574840672px" x2="498.0559204525732px" y1="491.6330858791141px" y2="58.727182563015646px" stroke-width="4.459999999999993px" stroke="rgba(7.6%,0%,100%,0.135)"></line><line x1="498.0559204525732px" x2="62.470895842891224px" y1="58.727182563015646px" y2="77.74523545448434px" stroke-width="4.479999999999992px" stroke="rgba(8.8%,0%,100%,0.13)"></line><line x1="62.470895842891224px" x2="77.77432514712453px" y1="77.74523545448434px" y2="515.9781131023514px" stroke-width="4.499999999999992px" stroke="rgba(10%,0%,100%,0.125)"></line><line x1="77.77432514712453px" x2="518.6232054613403px" y1="515.9781131023514px" y2="504.4340788983882px" stroke-width="4.519999999999992px" stroke="rgba(11.2%,0%,100%,0.12)"></line><line x1="518.6232054613403px" x2="510.8830632062095px" y1="504.4340788983882px" y2="61.00162609653211px" stroke-width="4.539999999999991px" stroke="rgba(12.4%,0%,100%,0.115)"></line><line x1="510.8830632062095px" x2="64.9000455195908px" y1="61.00162609653211px" y2="64.89366092900696px" stroke-width="4.559999999999991px" stroke="rgba(13.6%,0%,100%,0.11)"></line><line x1="64.9000455195908px" x2="64.90004551979541px" y1="64.89366092900696px" y2="513.393660929007px" stroke-width="4.57999999999999px" stroke="rgba(14.8%,0%,100%,0.105)"></line><line x1="64.90004551979541px" x2="515.8828728217385px" y1="513.393660929007px" y2="517.3293284385644px" stroke-width="4.59999999999999px" stroke="rgba(16%,0%,100%,0.1)"></line><line x1="515.8828728217385px" x2="523.7975391408328px" y1="517.3293284385644px" y2="63.898398685137266px" stroke-width="4.6199999999999894px" stroke="rgba(17.2%,0%,100%,0.095)"></line><line x1="523.7975391408328px" x2="67.95379895197297px" y1="63.898398685137266px" y2="51.96171025696546px" stroke-width="4.639999999999989px" stroke="rgba(18.4%,0%,100%,0.09)"></line><line x1="67.95379895197297px" x2="51.95237971409924px" y1="51.96171025696546px" y2="510.1824044452287px" stroke-width="4.659999999999989px" stroke="rgba(19.6%,0%,100%,0.085)"></line><line x1="51.95237971409924px" x2="512.5136098633457px" y1="510.1824044452287px" y2="530.290942020421px" stroke-width="4.679999999999988px" stroke="rgba(20.8%,0%,100%,0.08)"></line><line x1="512.5136098633457px" x2="536.7713255817179px" y1="530.290942020421px" y2="67.42615266166385px" stroke-width="4.699999999999988px" stroke="rgba(22%,0%,100%,0.075)"></line><line x1="536.7713255817179px" x2="71.64050951711334px" y1="67.42615266166385px" y2="38.97753323865746px" stroke-width="4.719999999999987px" stroke="rgba(23.2%,0%,100%,0.07)"></line><line x1="71.64050951711334px" x2="38.959601568232216px" y1="38.97753323865746px" y2="506.33629078540196px" stroke-width="4.739999999999987px" stroke="rgba(24.4%,0%,100%,0.065)"></line><line x1="38.959601568232216px" x2="508.50766575655484px" y1="506.33629078540196px" y2="543.2905248729706px" stroke-width="4.7599999999999865px" stroke="rgba(25.6%,0%,100%,0.06)"></line><line x1="508.50766575655484px" x2="549.7759099473201px" y1="543.2905248729706px" y2="71.59233532650717px" stroke-width="4.779999999999986px" stroke="rgba(26.8%,0%,100%,0.055)"></line><line x1="549.7759099473201px" x2="75.9673195245183px" y1="71.59233532650717px" y2="25.969757127136234px" stroke-width="4.799999999999986px" stroke="rgba(28%,0%,100%,0.05)"></line><line x1="75.9673195245183px" x2="25.950449851206542px" y1="25.969757127136234px" y2="501.8484840608824px" stroke-width="4.819999999999985px" stroke="rgba(29.2%,0%,100%,0.045)"></line><line x1="25.950449851206542px" x2="503.8585124316753px" y1="501.8484840608824px" y2="556.2992298829804px" stroke-width="4.839999999999985px" stroke="rgba(30.4%,0%,100%,0.04)"></line><line x1="503.8585124316753px" x2="562.7823399677942px" y1="556.2992298829804px" y2="76.40316556436807px" stroke-width="4.859999999999984px" stroke="rgba(31.6%,0%,100%,0.035)"></line><line x1="562.7823399677942px" x2="80.94013734008621px" y1="76.40316556436807px" y2="12.967436145697661px" stroke-width="4.879999999999984px" stroke="rgba(32.8%,0%,100%,0.03)"></line><line x1="80.94013734008621px" x2="12.954077521373677px" y1="12.967436145697661px" y2="496.71338772599404px" stroke-width="4.8999999999999835px" stroke="rgba(34%,0%,100%,0.025)"></line><line x1="12.954077521373677px" x2="498.5608664321173px" y1="496.71338772599404px" y2="569.2878085903487px" stroke-width="4.919999999999983px" stroke="rgba(35.2%,0%,100%,0.02)"></line><line x1="498.5608664321173px" x2="575.7612749291823px" y1="569.2878085903487px" y2="81.86361250660241px" stroke-width="4.939999999999983px" stroke="rgba(36.4%,0%,100%,0.015)"></line><line x1="575.7612749291823px" x2="86.56361656666633px" y1="81.86361250660241px" y2="0px" stroke-width="4.959999999999982px" stroke="rgba(37.6%,0%,100%,0.01)"></line><line x1="86.56361656666633px" x2="0px" y1="0px" y2="490.9266648766383px" stroke-width="4.979999999999982px" stroke="rgba(38.8%,0%,100%,0.005)"></line></svg>